<svg xmlns="http://www.w3.org/2000/svg" viewBox="0 0 400 600" width="400" height="600" font-family="-apple-system, Segoe UI, Roboto, sans-serif">
  <defs>
    <radialGradient id="bg1" cx="0%" cy="0%" r="90%"><stop offset="0%" stop-color="#8b5cf6" stop-opacity="0.22"/><stop offset="55%" stop-color="#0a0a14" stop-opacity="0"/></radialGradient>
    <radialGradient id="bg2" cx="100%" cy="100%" r="90%"><stop offset="0%" stop-color="#3b82f6" stop-opacity="0.20"/><stop offset="55%" stop-color="#0a0a14" stop-opacity="0"/></radialGradient>
    <linearGradient id="acc" x1="0" y1="0" x2="1" y2="1"><stop offset="0%" stop-color="#8b5cf6"/><stop offset="50%" stop-color="#6366f1"/><stop offset="100%" stop-color="#3b82f6"/></linearGradient>
    <filter id="glow" x="-40%" y="-40%" width="180%" height="180%"><feGaussianBlur stdDeviation="6" result="b"/><feMerge><feMergeNode in="b"/><feMergeNode in="SourceGraphic"/></feMerge></filter>
  </defs>

  <rect width="400" height="600" fill="#0a0a14"/>
  <rect width="400" height="600" fill="url(#bg1)"/>
  <rect width="400" height="600" fill="url(#bg2)"/>

  <rect width="400" height="48" fill="#12121e" fill-opacity="0.7"/>
  <line x1="0" y1="48" x2="400" y2="48" stroke="#ffffff" stroke-opacity="0.09"/>
  <text x="16" y="30" fill="url(#acc)" font-size="16" font-weight="700" filter="url(#glow)">✦ FounderOS</text>
  <text x="328" y="30" fill="#8b8cff" font-size="15">＋</text>
  <text x="352" y="30" fill="#a2a8bc" font-size="15">⤢</text>
  <text x="376" y="30" fill="#a2a8bc" font-size="15">⚙</text>

  <rect y="48" width="400" height="40" fill="#12121e" fill-opacity="0.6"/>
  <text x="24" y="72" fill="#a2a8bc" font-size="12" font-weight="600">Notes</text>
  <text x="66" y="72" fill="#a2a8bc" font-size="12" font-weight="600">Links</text>
  <text x="106" y="72" fill="#a2a8bc" font-size="12" font-weight="600">Journal</text>
  <rect x="160" y="56" width="86" height="24" rx="7" fill="url(#acc)" fill-opacity="0.18" stroke="#7c7cff" stroke-opacity="0.4"/>
  <text x="172" y="72" fill="#ffffff" font-size="12" font-weight="600">Completed</text>

  <!-- head -->
  <text x="16" y="118" fill="#a2a8bc" font-size="11" font-weight="700" letter-spacing="1">COMPLETED TASKS</text>
  <text x="160" y="118" fill="#6e7488" font-size="11">3</text>
  <rect x="256" y="102" width="128" height="28" rx="11" fill="#ffffff" fill-opacity="0.045" stroke="#ffffff" stroke-opacity="0.12"/>
  <text x="272" y="121" fill="#a2a8bc" font-size="12" font-weight="600">🗄 Clear completed</text>

  <!-- Today group -->
  <text x="16" y="152" fill="#a2a8bc" font-size="11" font-weight="700" letter-spacing="1">📅 TODAY</text>
  <text x="372" y="152" fill="#6e7488" font-size="11" text-anchor="end">2</text>

  <rect x="16" y="162" width="368" height="58" rx="11" fill="#ffffff" fill-opacity="0.045" stroke="#ffffff" stroke-opacity="0.09"/>
  <rect x="16" y="162" width="3" height="58" fill="#46e0a0"/>
  <text x="34" y="190" fill="#46e0a0" font-size="15" filter="url(#glow)">✓</text>
  <text x="56" y="190" fill="#a2a8bc" font-size="13" font-weight="600" text-decoration="line-through">Send pitch deck to angels</text>
  <rect x="56" y="200" width="58" height="16" rx="8" fill="#ff6b6e" fill-opacity="0.16"/>
  <text x="66" y="212" fill="#ff6b6e" font-size="9" font-weight="700">High</text>
  <text x="124" y="212" fill="#6e7488" font-size="10">✓ done 14:20</text>

  <rect x="16" y="230" width="368" height="58" rx="11" fill="#ffffff" fill-opacity="0.045" stroke="#ffffff" stroke-opacity="0.09"/>
  <rect x="16" y="230" width="3" height="58" fill="#46e0a0"/>
  <text x="34" y="258" fill="#46e0a0" font-size="15" filter="url(#glow)">✓</text>
  <text x="56" y="258" fill="#a2a8bc" font-size="13" font-weight="600" text-decoration="line-through">Review onboarding flow</text>
  <rect x="56" y="268" width="48" height="16" rx="8" fill="#ffb454" fill-opacity="0.16"/>
  <text x="66" y="280" fill="#ffb454" font-size="9" font-weight="700">Mid</text>
  <text x="114" y="280" fill="#6e7488" font-size="10">✓ done 11:05</text>

  <!-- Yesterday group -->
  <text x="16" y="320" fill="#a2a8bc" font-size="11" font-weight="700" letter-spacing="1">📅 YESTERDAY</text>
  <text x="372" y="320" fill="#6e7488" font-size="11" text-anchor="end">1</text>

  <rect x="16" y="330" width="368" height="58" rx="11" fill="#ffffff" fill-opacity="0.045" stroke="#ffffff" stroke-opacity="0.09"/>
  <rect x="16" y="330" width="3" height="58" fill="#46e0a0"/>
  <text x="34" y="358" fill="#46e0a0" font-size="15" filter="url(#glow)">✓</text>
  <text x="56" y="358" fill="#a2a8bc" font-size="13" font-weight="600" text-decoration="line-through">Set up analytics dashboard</text>
  <rect x="56" y="368" width="48" height="16" rx="8" fill="#8a93a8" fill-opacity="0.16"/>
  <text x="68" y="380" fill="#8a93a8" font-size="9" font-weight="700">Low</text>
  <text x="114" y="380" fill="#6e7488" font-size="10">✓ done 18:42</text>
</svg>
